<?xml version="1.0" standalone="no"?>
<!DOCTYPE svg PUBLIC "-//W3C//DTD SVG 20010904//EN"
 "http://www.w3.org/TR/2001/REC-SVG-20010904/DTD/svg10.dtd">
<svg version="1.0" xmlns="http://www.w3.org/2000/svg"
 width="568.000000pt" height="568.000000pt" viewBox="0 0 568.000000 568.000000"
 preserveAspectRatio="xMidYMid meet">
<metadata>
Created by potrace 1.14, written by Peter Selinger 2001-2017
</metadata>
<g transform="translate(0.000000,568.000000) scale(0.100000,-0.100000)"
fill="#000000" stroke="none">
<path d="M2678 5675 c-2 -1 -37 -5 -78 -9 -41 -3 -86 -8 -100 -10 -14 -2 -47
-8 -75 -12 -27 -4 -52 -8 -55 -9 -3 0 -27 -5 -55 -10 -27 -5 -52 -9 -55 -10
-12 -3 -67 -16 -85 -20 -83 -17 -275 -79 -390 -125 -88 -35 -299 -137 -357
-172 -172 -105 -200 -125 -326 -223 -168 -130 -327 -290 -477 -479 -16 -21
-40 -51 -52 -66 -13 -15 -23 -33 -23 -39 0 -6 -4 -11 -9 -11 -5 0 -13 -9 -16
-20 -3 -11 -12 -26 -19 -32 -38 -39 -179 -304 -242 -455 -88 -211 -165 -488
-190 -678 -2 -16 -6 -43 -8 -60 -29 -189 -29 -657 -1 -795 3 -14 7 -41 9 -60
10 -86 45 -255 72 -346 9 -33 17 -61 17 -64 0 -3 14 -48 33 -100 47 -137 116
-297 170 -398 26 -48 52 -97 58 -109 6 -13 14 -23 19 -23 4 0 7 -5 7 -10 0
-11 79 -136 114 -181 12 -15 30 -39 41 -54 49 -68 98 -125 108 -125 5 0 8 -3
5 -6 -4 -3 1 -14 10 -23 249 -262 442 -420 657 -541 33 -18 68 -40 79 -49 10
-9 19 -15 20 -13 0 2 57 -23 126 -56 69 -33 148 -67 175 -77 28 -9 64 -23 80
-30 50 -21 278 -87 350 -101 11 -2 43 -8 70 -14 76 -16 89 -18 142 -25 26 -4
59 -9 73 -11 157 -25 673 -25 791 0 13 3 46 8 72 11 104 12 313 60 422 96 33
11 67 22 75 24 13 3 82 28 135 50 11 5 22 9 25 10 80 25 322 153 452 237 192
126 402 308 538 467 25 29 55 63 68 76 12 13 22 28 22 33 0 5 7 16 16 23 18
14 26 26 114 160 59 90 75 116 86 139 4 8 16 27 26 42 11 16 17 28 14 28 -4 0
4 17 17 38 49 79 192 452 213 557 2 11 6 31 9 45 3 14 11 52 19 85 8 33 13 61
12 63 -6 5 -1328 3 -1333 -2 -3 -3 -25 -55 -50 -117 -204 -507 -650 -850
-1179 -906 -90 -9 -262 -9 -344 1 -36 4 -72 8 -80 8 -8 0 -28 4 -45 8 -16 5
-43 11 -60 14 -16 2 -45 9 -63 15 -18 5 -34 10 -37 11 -109 21 -437 182 -453
222 -2 4 -8 8 -13 8 -25 0 -200 166 -280 265 -89 111 -191 291 -244 431 -28
74 -80 264 -89 329 -4 23 -8 51 -11 63 -16 87 -22 323 -11 456 6 68 10 94 21
161 3 17 8 48 11 70 4 22 10 48 15 58 6 9 7 17 5 17 -3 0 -1 12 5 28 6 15 12
35 14 45 27 133 151 380 271 537 95 125 245 263 365 335 35 21 66 41 69 44 5
6 85 45 150 74 164 73 388 118 595 120 184 2 239 -4 395 -41 310 -74 599 -261
788 -508 20 -27 40 -50 45 -52 4 -2 7 -8 7 -14 0 -5 11 -24 24 -41 36 -47 100
-172 142 -276 30 -75 40 -91 57 -91 12 0 29 0 37 0 8 -1 110 0 227 0 116 1
216 -1 222 -4 5 -4 12 -3 15 2 3 5 24 7 48 5 54 -5 43 -4 168 -4 58 1 112 1
120 0 8 0 122 1 252 2 237 2 238 2 233 23 -6 31 -35 157 -42 186 -3 14 -7 30
-8 35 -11 43 -79 243 -87 253 -6 6 -8 12 -5 12 11 0 -157 357 -174 370 -3 3
-12 16 -19 30 -23 43 -132 205 -141 208 -5 2 -9 8 -9 13 0 5 -8 19 -19 31
-159 191 -255 290 -386 398 -49 41 -92 78 -95 81 -9 10 -213 146 -255 169
-314 177 -632 292 -955 344 -19 4 -45 8 -57 10 -12 3 -48 8 -80 11 -32 4 -76
9 -98 12 -46 5 -522 13 -527 8z"/>
</g>
</svg>
